<?xml version="1.0" encoding="UTF-8" standalone="no"?>
<svg
   xmlns:dc="http://purl.org/dc/elements/1.1/"
   xmlns:cc="http://creativecommons.org/ns#"
   xmlns:rdf="http://www.w3.org/1999/02/22-rdf-syntax-ns#"
   xmlns:svg="http://www.w3.org/2000/svg"
   xmlns="http://www.w3.org/2000/svg"
   xmlns:sodipodi="http://sodipodi.sourceforge.net/DTD/sodipodi-0.dtd"
   xmlns:inkscape="http://www.inkscape.org/namespaces/inkscape"
   width="16"
   height="16"
   viewBox="0 0 16 16"
   fill="none"
   version="1.1"
   id="svg4"
   sodipodi:docname="run.svg"
   inkscape:version="1.0.1 (3bc2e813f5, 2020-09-07)">
  <metadata
     id="metadata10">
    <rdf:RDF>
      <cc:Work
         rdf:about="">
        <dc:format>image/svg+xml</dc:format>
        <dc:type
           rdf:resource="http://purl.org/dc/dcmitype/StillImage" />
        <dc:title></dc:title>
      </cc:Work>
    </rdf:RDF>
  </metadata>
  <defs
     id="defs8" />
  <sodipodi:namedview
     pagecolor="#ffffff"
     bordercolor="#666666"
     borderopacity="1"
     objecttolerance="10"
     gridtolerance="10"
     guidetolerance="10"
     inkscape:pageopacity="0"
     inkscape:pageshadow="2"
     inkscape:window-width="1368"
     inkscape:window-height="850"
     id="namedview6"
     showgrid="false"
     inkscape:pagecheckerboard="true"
     inkscape:zoom="15.465402"
     inkscape:cx="14.887627"
     inkscape:cy="1.3426525"
     inkscape:window-x="-6"
     inkscape:window-y="33"
     inkscape:window-maximized="1"
     inkscape:current-layer="svg4" />
  <g
     id="g870"
     transform="matrix(0.02245866,0,0,0.02245866,8.0195341,8.3021408)"
     style="fill:#c5c5c5;fill-opacity:1">
    <path
       style="display:inline;fill:#c5c5c5;fill-opacity:1;stroke:#22daff;stroke-width:0;stroke-miterlimit:4;stroke-dasharray:none;stroke-opacity:1"
       d="m -94.519081,237.61617 c -5.20481,-3.72242 -5.989579,-4.73161 -5.989579,-7.70233 0,-1.88026 2.132419,-12.47321 4.738719,-23.5399 2.6063,-11.06667 5.95157,-25.27749 7.43394,-31.57957 1.48237,-6.30208 4.44615,-18.25521 6.58618,-26.5625 2.14003,-8.30729 4.18722,-16.36493 4.54929,-17.90586 0.6452,-2.74584 -2.79001,-12.67767 -20.64839,-59.698308 -3.046309,-8.02083 -6.176729,-16.39569 -6.956489,-18.61079 -1.01786,-2.89145 -3.62348,-5.85812 -9.23759,-10.5176 -12.38025,-10.27509 -29.33158,-22.55519 -30.56667,-22.1435 -0.62089,0.20696 -3.3221,5.18993 -6.00269,11.07326 -2.68059,5.88333 -5.31374,11.1369 -5.85143,11.67459 -0.54868,0.54868 -7.79785,0.8507 -16.52167,0.68833 l -15.54404,-0.28929 0.36054,-31.25 0.36054,-31.25 5.18106,-7.98384 c 8.92285,-13.74982 19.79363,-22.61242 29.77494,-24.27456 2.4349,-0.40547 4.42709,-1.13436 4.42709,-1.61975 0,-0.48539 -3.32436,-9.702 -7.38747,-20.48136 -4.0631,-10.77935 -9.90276,-26.827192 -12.97703,-35.661862 -5.10111,-14.65936 -31.47957,-82.84059 -29.89575,-83.99871 2.4196,-1.76925 29.96519,65.75476 31.26314,69.6433 0.61228,1.83431 2.61844,6.85073 4.45813,11.14761 1.8397,4.29687 8.11948,19.530482 13.95507,33.852462 7.37836,18.1083 11.14556,26.14307 12.36787,26.37846 2.49654,0.48079 2.40851,-0.41233 -3.35564,-34.04309 -8.9507,-52.222692 -20.37008,-116.478222 -18.2286,-118.619702 2.42531,-2.42531 13.54624,54.88131 15.26601,63.52562 0.94034,4.72656 2.90919,14.21875 4.37524,21.09375 1.46604,6.875 5.01587,24.218752 7.88851,38.541672 2.87264,14.32291 5.45644,27.08921 5.74178,28.36955 0.3291,1.4767 1.56043,2.56315 3.36752,2.97131 14.23578,3.21538 36.919609,12.8658 43.748689,18.61211 3.22275,2.71176 3.22886,2.73663 1.61904,6.58947 -2.48766,5.9538 -1.30151,14.23846 3.42261,23.9052501 3.25117,6.65277 6.0049,10.14377 15.46527,19.6058599 6.33037,6.33154 14.32228,13.63119 17.75978,16.22143 14.33942,10.80514 36.0745395,22.42233 51.26362,27.39987 4.95507,1.6238 6.50143,3.02678 17.67004,16.0315 33.62051,39.147758 54.09868,54.315018 84.958051,62.924598 6.72378,1.8759 12.2316,3.96066 12.23958,4.6328 0.0251,2.10766 -14.62217,11.06375 -23.64489,14.45773 -4.750641,1.787 -8.877701,3.48927 -9.171251,3.78283 -0.29355,0.29355 3.8092,3.51039 9.117231,7.14853 11.44004,7.84104 96.28894,66.0683 104.72387,72.34246 6.13398,4.56262 7.60407,6.73238 3.90625,5.76538 -1.14583,-0.29964 -2.08333,-0.0934 -2.08333,0.45821 0,0.58017 -2.55312,0.81079 -6.05625,0.54705 -6.76559,-0.50934 -74.43556,-45.65578 -114.400471,-71.07855 l -20.43588,-12.99982 -10.16887,-1.27996 c -5.59289,-0.70398 -12.75251,-1.95292 -15.91027,-2.77541 -3.15777,-0.82249 -5.97762,-1.25923 -6.26633,-0.97053 -0.28869,0.28871 6.92645,8.16875 16.03366,17.51122 22.4223,23.0015 95.912741,98.00619 95.912741,99.61884 0,0.73331 -1.05469,1.41959 -2.34375,1.52509 -1.28906,0.1055 -3.98437,0.4062 -5.98958,0.66822 -3.43843,0.44929 -4.42996,-0.24312 -17.42907,-12.17099 C 98.537969,245.46342 4.4547085,152.43483 -42.838751,105.25712 c -25.12991,-25.068398 -45.83078,-44.932948 -46.00192,-44.143438 -0.17115,0.78951 5.10229,14.94859 11.71875,31.46464 9.52112,23.766678 12.02992,31.074978 12.02992,35.043928 0,5.59046 -1.68884,12.81057 -14.07961,60.19295 -12.48121,47.72825 -11.55065,42.01096 -7.70857,47.36096 5.64808,7.86483 1.70659,9.12382 -7.6389,2.44001 z"
       id="path883"
       sodipodi:nodetypes="ssssssssssssscccsssssssssssssssssssssssssssssssssscsssssssssssssss" />
    <path
       style="display:inline;fill:#c5c5c5;fill-opacity:1;stroke:#22daff;stroke-width:0;stroke-miterlimit:4;stroke-dasharray:none;stroke-opacity:1"
       d="m 29.429299,74.958592 c -0.18945,-0.53322 -4.26123,-5.00356 -9.04842,-9.93409 -7.52804,-7.75345 -10.20192,-9.71745 -19.79167047,-14.53729 C -27.844361,36.196422 -59.677821,10.881352 -66.294561,-2.7010979 c -2.10994,-4.33115 -2.53959,-6.78726 -2.55111,-14.5833401 -0.008,-5.15625 -0.40813,-9.99539 -0.89004,-10.75364 -1.40608,-2.21237 -13.96258,-9.89366 -23.85892,-14.5954 -5.02243,-2.38615 -9.382699,-4.33846 -9.689499,-4.33846 -0.30681,0 -2.5243,-0.88441 -4.92776,-1.96538 -2.40346,-1.08096 -5.984,-2.30998 -7.95676,-2.73117 -4.43719,-0.94734 -7.01335,-3.1436 -4.71974,-4.02375 0.84465,-0.32412 1.53573,-1.2345 1.53573,-2.02306 0,-0.78856 0.9375,-2.28217 2.08334,-3.31914 1.14583,-1.03697 2.0874,-2.63305 2.09236,-3.54686 0.005,-0.9138 1.69502,-3.44038 3.75566,-5.61459 2.06064,-2.17421 4.83338,-6.86171 6.16164,-10.41666 12.771789,-34.182252 36.938119,-75.349302 63.354459,-107.923522 21.279,-26.23932 59.57942,-63.17969 77.7134,-74.95377 9.69899,-6.29739 24.60605,-12.5594 30.02886,-12.61421 4.455,-0.045 9.5098,2.15682 12.56719,5.47423 5.55352,6.02578 2.26452,17.12526 -11.79465,39.80371 -12.11427,19.54119 -121.68523,179.536052 -121.68523,183.487572 -0.40908,2.65304 -1.41915,-4.83243 0,0 0,3.15485 120.58686,-124.794232 148.07402,-150.448772 2.01509,-1.88074 6.93644,-6.33387 10.936321,-9.89583 3.99989,-3.56197 10.82623,-9.82527 15.16966,-13.91846 21.6411,-20.39427 36.46074,-31.38814 49.30362,-36.57561 5.40142,-2.18173 7.6073,-2.50864 14.26243,-2.1137 4.48996,0.26645 9.32038,1.22198 11.24168,2.2238 17.827,9.29525 27.697,44.3899 27.7288,98.59517 0.022,37.26441 -4.3874,66.251722 -15.2113,100.000002 -15.032,46.86898 -46.66684,94.31229 -75.78225,113.65199 -24.26928,16.12068 -46.186001,21.5651 -80.785721,20.06826 -10.89027,-0.47114 -16.35471,-0.31816 -17.88472,0.50068 -1.27811,0.68403 -2.34779,0.77204 -2.54761,0.2096 z"
       id="path914-0"
       sodipodi:nodetypes="sssscssssssssssssssssccssssssssssss" />
  </g>
</svg>
